<svg width="140" height="24" viewBox="0 0 140 24" fill="#CFD6E4" xmlns="http://www.w3.org/2000/svg">
  <path d="M20.624 14.3415C20.2042 14.606 19.7098 14.6388 19.334 14.4275C18.8566 14.1588 18.5941 13.5296 18.5941 12.6544V10.0361C18.5941 8.77171 18.0927 7.872 17.2542 7.62907C15.8332 7.21639 14.7646 8.94966 14.3629 9.60058L11.8569 13.6513V8.70029C11.8287 7.56117 11.4576 6.87981 10.753 6.67434C10.2868 6.53854 9.58919 6.59298 8.91158 7.62673L3.297 16.6144C2.54534 15.1919 2.1535 13.6079 2.15552 12C2.15552 6.58595 6.50768 2.18166 11.8569 2.18166C17.206 2.18166 21.5576 6.58595 21.5576 12C21.5576 12.0094 21.56 12.0176 21.5605 12.0263C21.5605 12.0357 21.5588 12.0439 21.5594 12.0533C21.6099 13.1017 21.2693 13.9358 20.624 14.342V14.3415ZM23.7131 12.0006V12V11.9731L23.7126 11.9461C23.6826 5.35259 18.3763 0 11.8563 0C5.31924 0 0 5.38302 0 12C0 18.6164 5.31924 24 11.8569 24C14.8567 24 17.7198 22.8632 19.9176 20.7998C20.3545 20.39 20.3803 19.6999 19.9752 19.2585C19.7825 19.0468 19.5125 18.9212 19.2259 18.9102C18.9394 18.8992 18.6605 19.0036 18.452 19.2C16.6706 20.8817 14.3103 21.8188 11.8569 21.8183C8.99261 21.8183 6.41549 20.5545 4.63811 18.5502L9.70134 10.4453V14.1817C9.70134 15.9764 10.3995 16.5565 10.9849 16.7262C11.5709 16.896 12.4664 16.7801 13.4064 15.2581L16.1914 10.7573C16.2807 10.6121 16.3629 10.4868 16.438 10.3785V12.6544C16.438 14.3321 17.1121 15.6738 18.287 16.3346C19.3463 16.9305 20.678 16.8767 21.7631 16.1941C23.0784 15.3659 23.7871 13.8398 23.7131 12.0006ZM40.2204 7.90068C40.5052 8.07337 40.7518 8.45737 40.7518 8.80332C40.7518 9.36 40.2774 9.82068 39.746 9.82068C39.6133 9.82068 39.4806 9.78263 39.3667 9.744C38.7402 9.28332 37.9434 8.976 37.1084 8.976C35.1355 8.976 33.7691 10.5887 33.7691 12.5854C33.7691 14.5826 35.1355 16.176 37.1084 16.176C38.0949 16.176 38.968 15.7727 39.6321 15.1586C39.8037 15.0357 40.0092 14.9686 40.2204 14.9666C40.7518 14.9666 41.1693 15.3887 41.1693 15.9266C41.1693 16.272 40.9603 16.5793 40.6949 16.752C39.746 17.5586 38.456 18.096 37.1278 18.096C34.0921 18.096 31.6248 15.6 31.6248 12.528C31.6248 9.456 34.0915 6.96 37.1278 6.96C38.2663 6.96 39.3473 7.30537 40.2204 7.90068ZM45.7716 10.224C47.8396 10.224 49.5853 11.9713 49.5853 14.1214C49.5853 16.272 47.8396 18.096 45.7716 18.096C43.6085 18.096 41.8058 16.272 41.8058 14.1214C41.8058 11.9713 43.6085 10.224 45.7716 10.224ZM45.7522 16.176C46.6635 16.176 47.441 15.312 47.441 14.1407C47.441 12.97 46.6635 12.24 45.7522 12.24C44.7658 12.24 43.9496 12.9506 43.9496 14.1407C43.9496 15.312 44.7658 16.176 45.7522 16.176ZM50.8859 16.9054V11.4146C50.8859 10.8193 51.3604 10.32 51.9487 10.32C52.5371 10.32 53.0303 10.8193 53.0303 11.4146V16.9054C53.0303 17.5007 52.5371 18 51.9487 18C51.3604 18 50.8859 17.5007 50.8859 16.9054ZM50.7156 8.24663C50.7156 7.536 51.2652 6.96 51.9487 6.96C52.6504 6.96 53.2199 7.536 53.2199 8.24663C53.2199 8.93737 52.6504 9.49463 51.9487 9.49463C51.2652 9.49463 50.7156 8.93737 50.7156 8.24663ZM57.1394 13.9294V16.9054C57.1394 17.5007 56.6461 18 56.0572 18C55.4694 18 54.9944 17.5007 54.9944 16.9054V11.1647C54.9944 10.704 55.3743 10.32 55.83 10.32C56.285 10.32 56.6461 10.704 56.6461 11.1647C57.5187 10.3586 58.2773 10.224 58.9984 10.224C61.1427 10.224 62.0916 11.8367 62.0916 13.6607V16.9054C62.0916 17.5007 61.5984 18 61.01 18C60.4217 18 59.9472 17.5007 59.9472 16.9054V13.9294C59.9472 12.9887 59.8333 12.2014 58.4863 12.2014C57.5375 12.2014 57.1388 12.9887 57.1388 13.9294H57.1394ZM69.0655 15.0626C68.8189 15.0626 68.6486 14.9473 68.5153 14.7934L66.0104 12.0866V16.9054C66.0104 17.5007 65.5172 18 64.9288 18C64.3405 18 63.8661 17.5007 63.8661 16.9054V7.3639C63.9289 7.19921 64.0886 7.09151 64.2653 7.09457C64.4544 7.09457 64.6059 7.24859 64.7204 7.3639L68.705 11.8373C68.8189 11.9719 68.9704 12.0486 69.0467 12.0486C69.1225 12.0486 69.2739 11.9719 69.3879 11.8379L73.373 7.3639C73.487 7.24859 73.6384 7.09457 73.8281 7.09457C74.0178 7.09457 74.1698 7.20995 74.2268 7.3639V16.9054C74.2268 17.5007 73.7523 18 73.164 18C72.5757 18 72.0824 17.5007 72.0824 16.9054V12.0866L69.5781 14.7934C69.4448 14.9473 69.274 15.0626 69.0655 15.0626ZM79.3793 16.176C80.3469 16.176 81.1625 15.312 81.1625 14.1407C81.1625 12.97 80.3281 12.2014 79.3793 12.2014C78.4304 12.2014 77.6712 12.9887 77.6712 14.1407C77.6712 15.2734 78.4304 16.176 79.3793 16.176ZM81.6563 17.1553L81.6176 16.9054C81.2007 17.7307 79.8719 18.096 79.0182 18.096C77.0065 18.096 75.5268 16.272 75.5268 14.1214C75.5268 11.9713 77.0447 10.224 79.1321 10.224C79.4926 10.224 80.6881 10.32 81.6176 11.4146L81.6557 11.1647C81.6557 10.704 82.0163 10.32 82.4719 10.32C82.927 10.32 83.3063 10.704 83.3063 11.1647V17.1553C83.3063 17.616 82.927 18 82.4713 18C82.0163 18 81.6552 17.616 81.6552 17.1553H81.6563ZM89.2562 12.2014H89.0289C87.6814 12.2786 87.416 13.0466 87.416 13.9294V16.9054C87.416 17.5007 86.9227 18 86.3344 18C85.746 18 85.2716 17.5007 85.2716 16.9054V11.1647C85.2716 10.704 85.6509 10.32 86.1066 10.32C86.5622 10.32 86.9227 10.704 86.9227 11.1647C87.7195 10.416 88.3648 10.2626 89.0289 10.224H89.2374C89.75 10.224 90.2238 10.6654 90.2238 11.2226C90.2238 11.7407 89.7688 12.2014 89.2562 12.2014ZM97.5207 16.4066C97.6158 16.56 97.6728 16.7327 97.6728 16.9247C97.6728 17.4814 97.1602 18 96.61 18C96.2307 18 95.9077 17.712 95.6611 17.4047L93.195 14.544V16.9054C93.195 17.5007 92.7011 18 92.1128 18C91.5244 18 91.05 17.5007 91.05 16.9054V8.18927C91.05 7.59337 91.5244 7.09463 92.1128 7.09463C92.7011 7.09463 93.1944 7.59337 93.1944 8.18927V13.6226L95.6611 10.896C95.9077 10.608 96.2113 10.32 96.5912 10.32C97.1226 10.32 97.6158 10.8193 97.6158 11.376C97.6158 11.5487 97.5776 11.7214 97.4825 11.8753L95.5284 14.006L97.5207 16.406V16.4066ZM100.188 13.4939H103.28C103.28 12.5774 102.554 12.1224 101.734 12.1224C100.914 12.1224 100.188 12.5966 100.188 13.4939ZM104.533 14.8127H100.188C100.188 16.0993 101.421 16.2913 101.971 16.2913C102.37 16.2913 102.939 16.2146 103.375 16.022C103.508 15.9266 103.736 15.8494 103.926 15.8494C104.4 15.8494 104.798 16.2533 104.798 16.7333C104.798 17.0593 104.59 17.3473 104.324 17.5007C103.66 17.9807 102.806 18.096 101.99 18.096C99.8271 18.096 98.0245 16.9253 98.0245 14.2174C98.0245 12.0866 99.1248 10.224 101.687 10.224C103.755 10.224 105.33 11.568 105.368 13.968C105.368 14.4287 104.988 14.8127 104.533 14.8127ZM110.501 18.096H109.913C108.281 18.096 107.332 17.3854 107.332 14.832V12.2014H106.782C106.27 12.2014 105.815 11.7407 105.815 11.2226C105.815 10.6654 106.27 10.224 106.782 10.224H107.332V8.18868C107.332 7.59337 107.807 7.09405 108.395 7.09405C108.983 7.09405 109.477 7.59337 109.477 8.18868V10.224H110.368C110.881 10.224 111.336 10.6654 111.336 11.2226C111.336 11.7407 110.881 12.2014 110.368 12.2014H109.477V14.4094C109.477 15.8687 109.553 16.176 110.198 16.176H110.501C111.013 16.176 111.45 16.5986 111.45 17.136C111.45 17.6546 111.013 18.096 110.501 18.096ZM120.891 7.90068C121.175 8.07337 121.422 8.45737 121.422 8.80332C121.422 9.36 120.948 9.82068 120.416 9.82068C120.284 9.82068 120.15 9.78263 120.037 9.744C119.411 9.28332 118.614 8.976 117.779 8.976C115.806 8.976 114.439 10.5887 114.439 12.5854C114.439 14.5826 115.805 16.176 117.779 16.176C118.765 16.176 119.638 15.7727 120.303 15.1586C120.474 15.0357 120.68 14.9686 120.891 14.9666C121.422 14.9666 121.839 15.3887 121.839 15.9266C121.839 16.272 121.631 16.5793 121.365 16.752C120.416 17.5586 119.126 18.096 117.798 18.096C114.762 18.096 112.295 15.6 112.295 12.528C112.295 9.456 114.761 6.96 117.798 6.96C118.937 6.96 120.018 7.30537 120.891 7.90068ZM126.328 16.176C127.296 16.176 128.111 15.312 128.111 14.1407C128.111 12.97 127.276 12.2014 126.328 12.2014C125.379 12.2014 124.62 12.9887 124.62 14.1407C124.62 15.2734 125.379 16.176 126.328 16.176H126.328ZM128.605 17.1553L128.567 16.9054C128.15 17.7307 126.821 18.096 125.967 18.096C123.956 18.096 122.476 16.272 122.476 14.1214C122.476 11.9713 123.994 10.224 126.081 10.224C126.441 10.224 127.637 10.32 128.567 11.4146L128.605 11.1647C128.605 10.704 128.965 10.32 129.421 10.32C129.876 10.32 130.256 10.704 130.256 11.1647V17.1553C130.256 17.616 129.876 18 129.421 18C128.965 18 128.605 17.616 128.605 17.1553ZM136.148 16.176C137.097 16.176 137.856 15.2734 137.856 14.1407C137.856 12.9887 137.097 12.2014 136.148 12.2014C135.199 12.2014 134.364 12.9694 134.364 14.1407C134.364 15.312 135.18 16.176 136.148 16.176ZM134.364 17.4626V20.1887C134.364 20.784 133.871 21.2833 133.283 21.2833C132.695 21.2833 132.22 20.784 132.22 20.1887V11.1647C132.22 10.704 132.6 10.32 133.055 10.32C133.511 10.32 133.872 10.704 133.872 11.2414C134.668 10.416 135.655 10.224 136.395 10.224C138.482 10.224 140 11.9713 140 14.1214C140 16.272 138.52 18.096 136.509 18.096C135.883 18.096 134.953 17.904 134.364 17.4626Z" fill="#CFD6E4" />
</svg>
